<svg height="480pt" viewBox="0 -24 480.50986 480" width="480pt" xmlns="http://www.w3.org/2000/svg"><path d="m264.074219 272.269531c0 35.347657-28.652344 64-64 64-35.34375 0-64-28.652343-64-64 0-35.34375 28.65625-64 64-64 35.347656 0 64 28.65625 64 64zm0 0" fill="#ff3314"/><path d="m136.074219 272.109375c0-35.34375 28.65625-64 64-64 8.238281 0 16.394531 1.632813 24 4.800781-13.480469-28.535156-19.011719-60.183594-16-91.601562l1.28125-12.796875-11.679688-5.28125c-33.183593-15.179688-60.792969-40.351563-78.960937-72-31.054688 6.3125-63.28125-2.238281-87.121094-23.121094 6.550781 31.402344-2.175781 64.054687-23.519531 88 18.199219 31.460937 26.117187 67.820313 22.640625 104l-1.28125 12.722656 11.679687 5.277344c33.199219 15.160156 60.8125 40.339844 78.960938 72l5.28125-3.039063c3.660156-2.117187 7.484375-3.9375 11.441406-5.441406-.472656-3.148437-.714844-6.332031-.722656-9.519531zm0 0" fill="#39b99b"/><path d="m188.074219 209.390625c-3.957031-.742187-7.972657-1.117187-12-1.121094-2 0-3.917969 0-5.839844 0-25.648437 3.222657-51.113281-7.21875-67.121094-27.519531-28.75-38.71875-46.273437-84.613281-50.636719-132.640625l-2.480468-26.878906c-6.605469-3.671875-12.777344-8.074219-18.402344-13.121094 6.550781 31.402344-2.175781 64.054687-23.519531 88 18.199219 31.460937 26.117187 67.820313 22.640625 104l-1.28125 12.722656 11.679687 5.277344c28.6875 13.066406 53.292969 33.664063 71.203125 59.601563 2.878906 3.90625 5.550782 7.964843 8 12.160156l5.277344-3.039063c3.664062-2.121093 7.488281-3.9375 11.441406-5.441406-.539062-3.066406-.859375-6.167969-.960937-9.28125 0-2 0-3.917969 0-5.839844.039062-.292969.039062-.585937 0-.878906 0-1.601563.402343-3.28125.640625-4.878906 2.222656-11.046875 7.359375-21.292969 14.878906-29.679688 9.378906-11.078125 22.242188-18.636719 36.480469-21.441406zm0 0" fill="#018667"/><path d="m472.074219 56.109375c-28.476563 14.246094-62 14.246094-90.480469 0-25.773438 25.75-58.941406 42.808594-94.878906 48.800781l-12.640625 2.078125-2.078125 13.121094c-5.933594 35.292969-22.515625 67.921875-47.519532 93.519531 16.898438 6.9375 30.027344 20.765625 36.078126 38 6.28125-2.195312 12.867187-3.382812 19.519531-3.519531 24.808593.003906 47.378906 14.34375 57.921875 36.800781 21.101562-14.695312 45.199218-24.53125 70.558594-28.800781l12.640624-2.078125 2.398438-12.402344c5.992188-35.933594 23.054688-69.105468 48.800781-94.878906-14.398437-28.472656-14.519531-62.066406-.320312-90.640625zm0 0" fill="#39b99b"/><path d="m434.554688 162.429688c-12.226563 9.207031-25.695313 16.636718-40 22.082031-46.289063 17.820312-98.125 13.972656-141.28125-10.480469-7.765626 14.34375-17.457032 27.558594-28.796876 39.277344 16.898438 6.9375 30.027344 20.765625 36.078126 38 6.296874-2.085938 12.886718-3.164063 19.519531-3.199219 24.808593.003906 47.378906 14.34375 57.921875 36.800781 21.101562-14.695312 45.199218-24.53125 70.558594-28.800781l12.640624-2.078125 2.398438-12.402344c5.992188-35.933594 23.054688-69.105468 48.800781-94.878906-1.519531-3.039062-2.800781-6.238281-4.078125-9.441406zm0 0" fill="#018667"/><path d="m280.074219 248.109375c-6.625-.015625-13.210938 1.007813-19.519531 3.039063 2.320312 6.746093 3.511718 13.828124 3.519531 20.960937-.019531 27.78125-17.957031 52.375-44.398438 60.878906 10.640625 30.835938 42.773438 48.734375 74.59375 41.550781 31.820313-7.183593 53.144531-37.152343 49.503907-69.570312-3.640626-32.414062-31.078126-56.910156-63.699219-56.859375zm0 0" fill="#ff3314"/><path d="m219.675781 333.148438c-6.328125 2.066406-12.945312 3.121093-19.601562 3.121093-24.046875-.027343-46.046875-13.53125-56.960938-34.960937-29.527343 12.507812-45.242187 44.941406-36.757812 75.867187s38.550781 50.796875 70.328125 46.484375 55.457031-31.480468 55.390625-63.550781c.121093-2.15625.121093-4.320313 0-6.480469-5.367188-6-9.570313-12.941406-12.398438-20.480468zm0 0" fill="#ff3314"/><path d="m264.074219 272.109375c-.019531 27.78125-17.957031 52.375-44.398438 60.878906 2.578125 7.300781 6.453125 14.078125 11.4375 20 18.296875-8.765625 32.042969-24.84375 37.863281-44.277343 5.816407-19.4375 3.167969-40.421876-7.300781-57.800782h-1.121093c2.347656 6.820313 3.535156 13.988282 3.519531 21.199219zm0 0" fill="#b21800"/><path d="m232.074219 360.109375c.121093-2.15625.121093-4.320313 0-6.480469l-.480469-.558594c-1.277344-1.441406-2.398438-2.960937-3.519531-4.480468-1.117188-1.519532-2.160157-3.121094-3.117188-4.71875l-1.363281-1.28125c-.746094-1.265625-1.414062-2.574219-2-3.917969-.875-1.785156-1.625-3.632813-2.238281-5.523437-6.328125 2.066406-12.945313 3.121093-19.601563 3.121093h-3.199218c-22.835938-1.140625-43.328126-14.375-53.757813-34.71875-4.292969 1.90625-8.371094 4.265625-12.160156 7.039063 9.109375 30.707031 37.410156 51.703125 69.4375 51.519531 4.273437-.015625 8.53125-.445313 12.722656-1.277344 5.386719 5 11.582031 9.058594 18.316406 12 .605469-3.542969.925781-7.128906.960938-10.722656zm0 0" fill="#b21800"/><path d="m240.074219 248.269531c0 8.835938-7.164063 16-16 16-8.835938 0-16-7.164062-16-16 0-8.835937 7.164062-16 16-16 8.835937 0 16 7.164063 16 16zm0 0" fill="#ff7561"/><path d="m312.074219 288.269531c0 8.835938-7.164063 16-16 16-8.835938 0-16-7.164062-16-16 0-8.835937 7.164062-16 16-16 8.835937 0 16 7.164063 16 16zm0 0" fill="#ff7561"/><path d="m176.074219 368.269531c0 8.835938-7.164063 16-16 16-8.835938 0-16-7.164062-16-16 0-8.835937 7.164062-16 16-16 8.835937 0 16 7.164063 16 16zm0 0" fill="#ff7561"/><g fill="#232323"><path d="m87.035156 53.148438c-4.238281-1.121094-8.589844 1.375-9.761718 5.601562l-2.316407 8.71875-4.480469-8c-2.210937-3.84375-7.117187-5.167969-10.960937-2.957031-3.84375 2.207031-5.167969 7.113281-2.960937 10.957031l14.160156 24.480469c1.433594 2.484375 4.089844 4.011719 6.960937 4h1.039063c3.1875-.433594 5.800781-2.734375 6.640625-5.839844l7.359375-27.359375c1.019531-4.210938-1.5-8.464844-5.679688-9.601562zm0 0"/><path d="m69.113281 132.75c-1.117187 4.261719 1.421875 8.625 5.683594 9.761719l32.796875 8.796875c.6875.121094 1.394531.121094 2.082031 0 1.40625-.011719 2.789063-.398438 4-1.117188 1.808594-1.058594 3.128907-2.78125 3.679688-4.800781l8.800781-32.800781c.855469-2.792969.121094-5.835938-1.921875-7.929688-2.039063-2.09375-5.058594-2.90625-7.875-2.121094-2.816406.785157-4.980469 3.042969-5.644531 5.890626l-3.757813 14.160156-6.402343-10.480469c-2.300782-3.617187-7.042969-4.777344-10.753907-2.632813-3.710937 2.144532-5.074219 6.835938-3.085937 10.632813l6.320312 11.039063-14.078125-3.839844c-4.21875-1.183594-8.605469 1.242187-9.84375 5.441406zm0 0"/><path d="m68.796875 192.109375 73.757813 19.761719h2.082031c3.628906.164062 6.914062-2.132813 8-5.601563l22.476562-73.039062c1.21875-4.285157-1.273437-8.746094-5.558593-9.960938-4.285157-1.214843-8.746094 1.273438-9.960938 5.5625l-17.199219 55.277344-11.917969-20.71875c-2.210937-3.84375-7.117187-5.167969-10.960937-2.960937-3.84375 2.210937-5.167969 7.117187-2.960937 10.960937l11.519531 19.839844-55.117188-14.71875c-4.308593-1.148438-8.734375 1.410156-9.882812 5.71875-1.148438 4.308593 1.414062 8.730469 5.722656 9.878906zm0 0"/><path d="m108.636719 280.109375c1.703125-.015625 3.355469-.578125 4.71875-1.597656 1.710937-1.261719 2.847656-3.152344 3.164062-5.253907.3125-2.101562-.21875-4.242187-1.484375-5.949218-18.457031-24.511719-42.734375-44.035156-70.640625-56.796875l-6.398437-2.402344.640625-7.121094c3.542969-35.96875-3.726563-72.183593-20.882813-104 16.097656-20.125 24.59375-45.273437 24-71.039062 21.9375 13.449219 47.910156 18.746093 73.359375 14.960937 19.082031 30.835938 46.9375 55.269532 80 70.160156l6.402344 2.960938-.640625 7.039062c-1.871094 19.1875-.683594 38.546876 3.519531 57.359376 1.082031 4.183593 5.292969 6.75 9.507813 5.800781 4.214844-.953125 6.910156-5.078125 6.09375-9.320313-3.820313-17.160156-4.902344-34.820312-3.199219-52.320312l1.199219-12.71875c.304687-3.382813-1.554688-6.589844-4.640625-8l-12.160157-5.761719c-31.640624-14.378906-57.992187-38.296875-75.359374-68.398437-1.785157-2.871094-5.175782-4.3125-8.480469-3.601563-28.792969 5.722656-58.601563-2.359375-80.558594-21.839844-2.570313-2.2773435-6.300781-2.664062-9.28125-.960937-3.027344 1.703125-4.609375 5.160156-3.921875 8.5625 5.796875 28.726562-2.195312 58.511718-21.597656 80.480468-2.289063 2.597657-2.644532 6.378907-.882813 9.359376 17.433594 30.066406 24.988281 64.847656 21.601563 99.4375l-1.199219 12.722656c-.308594 3.378906 1.550781 6.585937 4.640625 8l11.679688 5.277344c25.304687 11.703124 47.296874 29.519531 64 51.839843 1.609374 2.101563 4.15625 3.269531 6.800781 3.121094zm0 0"/><path d="m432.476562 96.109375c-3.121093-3.101563-8.160156-3.101563-11.28125 0l-20 20c-2.296874 2.28125-2.996093 5.71875-1.769531 8.710937 1.226563 2.996094 4.132813 4.957032 7.371094 4.96875h28.316406c4.421875 0 8-3.582031 8-8 0-4.417968-3.578125-8-8-8h-8.957031l6.320312-6.398437c3.101563-3.121094 3.101563-8.160156 0-11.28125zm0 0"/><path d="m361.59375 124.832031c-4.417969 0-8 3.578125-8 8v33.917969c0 4.417969 3.582031 8 8 8h33.921875c4.417969 0 8-3.582031 8-8s-3.582031-8-8-8h-14.640625l8.960938-8.960938c2.28125-1.953124 3.277343-5.023437 2.574218-7.945312s-2.984375-5.203125-5.90625-5.90625c-2.925781-.703125-5.992187.289062-7.949218 2.574219l-8.960938 8.957031v-14.636719c0-4.421875-3.582031-8-8-8zm0 0"/><path d="m312.074219 131.871094c-4.417969 0-8 3.582031-8 8v76.238281c0 4.417969 3.582031 8 8 8l76.402343 2.800781c4.417969 0 8-3.582031 8-8 0-4.417968-3.582031-8-8-8l-58-2.160156 17.117188-16.640625c3.136719-3.113281 3.15625-8.183594.042969-11.320313-3.117188-3.136718-8.183594-3.152343-11.320313-.039062l-16 16v-56.878906c0-2.164063-.875-4.238282-2.429687-5.746094-1.550781-1.503906-3.648438-2.320312-5.8125-2.253906zm0 0"/><path d="m479.59375 59.871094c1.625-3.101563 1.046875-6.898438-1.425781-9.371094-2.476563-2.476562-6.273438-3.054688-9.371094-1.429688-26.222656 13.078126-57.0625 13.078126-83.28125 0-3.097656-1.558593-6.84375-.941406-9.28125 1.519532-24.535156 24.617187-56.183594 40.90625-90.480469 46.558594l-12.640625 2.160156c-3.359375.566406-5.992187 3.199218-6.558593 6.5625l-2.160157 12.640625c-3.582031 21.851562-11.554687 42.753906-23.4375 61.4375-2.367187 3.734375-1.253906 8.675781 2.476563 11.039062 3.734375 2.367188 8.675781 1.253907 11.042968-2.476562 12.746094-20.574219 21.28125-43.46875 25.117188-67.363281l1.121094-7.039063 7.039062-1.121094c35.9375-5.777343 69.320313-22.1875 95.839844-47.117187 23.613281 10.203125 50.058594 11.789062 74.722656 4.480468-7.242187 24.703126-5.628906 51.15625 4.558594 74.796876-24.859375 26.242187-41.320312 59.308593-47.28125 94.960937l-1.117188 7.039063-6.882812.960937c-14.558594 2.472656-28.765625 6.691406-42.320312 12.5625-4.03125 1.753906-5.886719 6.433594-4.160157 10.476563 1.253907 2.957031 4.152344 4.878906 7.363281 4.882812 1.105469 0 2.199219-.246094 3.199219-.722656 12.21875-5.265625 25.03125-9.027344 38.160157-11.199219l12.640624-2.160156c3.359376-.566407 5.992188-3.199219 6.558594-6.558594l2.558594-12.480469c5.480469-34.359375 21.628906-66.125 46.160156-90.800781 2.429688-2.304687 3.164063-5.882813 1.839844-8.960937-13.039062-26.226563-13.039062-57.050782 0-83.277344zm0 0"/><path d="m280.074219 240.109375c-4.949219.078125-9.878907.640625-14.71875 1.679687-15.054688-32.425781-51.625-48.894531-85.886719-38.675781-34.261719 10.222657-55.832031 44.03125-50.660156 79.410157 5.167968 35.375 35.515625 61.597656 71.265625 61.585937 5.003906 0 9.992187-.535156 14.882812-1.597656 15.09375 32.410156 51.691407 48.832031 85.941407 38.566406 34.25-10.269531 55.777343-44.117187 50.550781-79.488281-5.226563-35.375-35.617188-61.554688-71.375-61.480469zm-136 32c0-30.925781 25.074219-56 56-56 30.929687 0 56 25.074219 56 56 0 30.929687-25.070313 56-56 56-30.925781 0-56-25.070313-56-56zm136 96c-21.070313-.046875-40.328125-11.917969-49.839844-30.71875 30.289063-14.148437 46.855469-47.28125 40-80 21.171875-4.546875 43.066406 3.523437 56.226563 20.71875 13.160156 17.199219 15.226562 40.441406 5.304687 59.6875-9.921875 19.25-30.050781 31.054687-51.691406 30.3125zm0 0"/><path d="m280.074219 336.109375c-3.421875-.003906-6.804688-.738281-9.917969-2.160156-4.042969-1.808594-8.789062 0-10.601562 4.039062-1.8125 4.042969-.003907 8.789063 4.039062 10.601563 5.207031 2.445312 10.890625 3.703125 16.640625 3.679687 4.417969 0 8-3.582031 8-8s-3.582031-8-8-8zm0 0"/><path d="m227.996094 384.109375c-3.867188-2.144531-8.738282-.746094-10.882813 3.121094-12.34375 22.390625-38.28125 33.574219-63.039062 27.183593-24.753907-6.390624-42.035157-28.738281-42-54.304687-.050781-12.75 4.300781-25.125 12.320312-35.039063 2.722657-3.449218 2.152344-8.453124-1.28125-11.199218-3.429687-2.742188-8.425781-2.207032-11.199219 1.199218-16.800781 21.226563-20.273437 50.085938-8.992187 74.695313 11.285156 24.609375 35.421875 40.808594 62.472656 41.929687 27.050781 1.117188 52.441407-13.03125 65.71875-36.625 1.058594-1.863281 1.320313-4.074218.734375-6.132812-.585937-2.058594-1.972656-3.800781-3.851562-4.828125zm0 0"/><path d="m200.074219 296.109375c-13.253907 0-24-10.746094-24-24 0-4.417969-3.582031-8-8-8s-8 3.582031-8 8c0 22.09375 17.910156 40 40 40 4.417969 0 8-3.582031 8-8s-3.582031-8-8-8zm0 0"/><path d="m168.074219 400.109375c4.417969 0 8-3.582031 8-8s-3.582031-8-8-8c-13.253907 0-24-10.746094-24-24 0-4.417969-3.582031-8-8-8s-8 3.582031-8 8c0 22.09375 17.910156 40 40 40zm0 0"/></g></svg>