<?xml version="1.0" encoding="utf-8"?>
<!-- Generator: Adobe Illustrator 24.0.1, SVG Export Plug-In . SVG Version: 6.00 Build 0)  -->
<svg version="1.1" id="Capa_1" xmlns="http://www.w3.org/2000/svg" xmlns:xlink="http://www.w3.org/1999/xlink" x="0px" y="0px"
	 viewBox="0 0 512.03 512.03" style="enable-background:new 0 0 512.03 512.03;" xml:space="preserve">
<style type="text/css">
	.st0{fill:#39B99B;}
	.st1{fill:#018667;}
	.st2{fill:#232323;}
	.st3{fill:#E8E8EA;}
	.st4{fill:#D6D6D8;}
	.st5{fill:#57565B;}
	.st6{fill:#4C4B51;}
</style>
<g>
	<path class="st0" d="M101.74,241.69c0-25.91,21.55-46.91,48.14-46.91c6.2,0,12.33,1.2,18.05,3.52
		c-10.14-20.92-14.3-44.12-12.03-67.14l0.96-9.38l-8.78-3.87c-24.96-11.13-45.72-29.58-59.39-52.78
		c-23.36,4.63-47.59-1.64-65.52-16.95c4.93,23.02-1.64,46.95-17.69,64.5c13.69,23.06,19.64,49.71,17.03,76.23l-0.96,9.33l8.78,3.87
		c24.97,11.11,45.74,29.57,59.39,52.78l3.97-2.23c2.75-1.55,5.63-2.89,8.61-3.99C101.93,246.36,101.75,244.03,101.74,241.69z"/>
	<path class="st1" d="M140.85,195.72c-2.98-0.54-6-0.82-9.03-0.82c-1.5,0-2.95,0-4.39,0c-19.29,2.36-38.44-5.29-50.48-20.17
		c-21.62-28.38-34.8-62.02-38.08-97.23L37,57.79c-4.97-2.69-9.61-5.92-13.84-9.62c4.93,23.02-1.64,46.95-17.69,64.5
		c13.69,23.06,19.64,49.71,17.03,76.23l-0.96,9.33l8.78,3.87c21.58,9.58,40.08,24.68,53.55,43.69c2.17,2.86,4.17,5.84,6.02,8.91
		l3.97-2.23c2.76-1.55,5.63-2.89,8.61-3.99c-0.41-2.25-0.65-4.52-0.72-6.8c0-1.47,0-2.87,0-4.28c0.03-0.21,0.03-0.43,0-0.64
		c0-1.17,0.3-2.41,0.48-3.58c1.67-8.1,5.54-15.61,11.19-21.76C120.47,203.31,130.14,197.77,140.85,195.72z"/>
	<g>
		<path class="st2" d="M64.86,81.19c-3.19-0.82-6.46,1.01-7.34,4.11l-1.74,6.39l-3.37-5.86c-1.66-2.82-5.35-3.79-8.24-2.17
			c-2.89,1.62-3.89,5.21-2.23,8.03l10.65,17.94c1.08,1.82,3.08,2.94,5.24,2.93h0.78c2.4-0.32,4.36-2,4.99-4.28l5.54-20.05
			C69.9,85.14,68,82.02,64.86,81.19z"/>
		<path class="st2" d="M51.38,139.54c-0.84,3.12,1.07,6.32,4.27,7.16l24.67,6.45c0.52,0.09,1.05,0.09,1.57,0
			c1.06-0.01,2.1-0.29,3.01-0.82c1.36-0.78,2.35-2.04,2.77-3.52l6.62-24.04c0.64-2.05,0.09-4.28-1.45-5.81
			c-1.53-1.53-3.8-2.13-5.92-1.55c-2.12,0.58-3.75,2.23-4.25,4.32l-2.83,10.38l-4.82-7.68c-1.73-2.65-5.3-3.5-8.09-1.93
			c-2.79,1.57-3.82,5.01-2.32,7.79l4.75,8.09l-10.59-2.81C55.61,134.68,52.31,136.46,51.38,139.54z"/>
		<path class="st2" d="M51.14,183.05l55.47,14.49h1.57c2.73,0.12,5.2-1.56,6.02-4.11l16.9-53.54c0.92-3.14-0.96-6.41-4.18-7.3
			c-3.22-0.89-6.58,0.93-7.49,4.08l-12.94,40.52L97.53,162c-1.66-2.82-5.35-3.79-8.24-2.17c-2.89,1.62-3.89,5.22-2.23,8.03
			l8.66,14.54l-41.45-10.79c-3.24-0.84-6.57,1.03-7.43,4.19C45.97,178.96,47.9,182.21,51.14,183.05z"/>
		<path class="st2" d="M81.11,247.55c1.28-0.01,2.52-0.42,3.55-1.17c1.29-0.92,2.14-2.31,2.38-3.85c0.24-1.54-0.16-3.11-1.12-4.36
			c-13.88-17.97-32.14-32.28-53.13-41.63l-4.81-1.76l0.48-5.22c2.66-26.37-2.8-52.91-15.71-76.23
			c12.11-14.75,18.5-33.19,18.05-52.07c16.5,9.86,36.03,13.74,55.17,10.97c14.35,22.6,35.3,40.51,60.17,51.43l4.82,2.17l-0.48,5.16
			c-1.41,14.06-0.51,28.26,2.65,42.04c0.81,3.07,3.98,4.95,7.15,4.25c3.17-0.7,5.2-3.72,4.58-6.83
			c-2.87-12.58-3.69-25.52-2.41-38.35l0.9-9.32c0.23-2.48-1.17-4.83-3.49-5.86l-9.15-4.22c-23.8-10.54-43.62-28.07-56.68-50.14
			c-1.34-2.1-3.89-3.16-6.38-2.64c-21.66,4.19-44.07-1.73-60.59-16.01c-1.93-1.67-4.74-1.95-6.98-0.7
			c-2.28,1.25-3.47,3.78-2.95,6.28c4.36,21.06-1.65,42.89-16.24,58.99c-1.72,1.9-1.99,4.68-0.66,6.86
			c13.11,22.04,18.79,47.53,16.25,72.89l-0.9,9.33c-0.23,2.48,1.17,4.83,3.49,5.86l8.78,3.87c19.03,8.58,35.57,21.64,48.14,38
			C77.2,246.81,79.12,247.66,81.11,247.55z"/>
	</g>
</g>
<g>
	<path class="st0" d="M297.58,223.48c24.11-9.49,51.55,2.88,61.28,27.62c2.27,5.77,3.4,11.91,3.33,18.09
		c15.75-17.09,35.82-29.46,58.08-35.78l9.08-2.54l0.39-9.59c1.22-27.3,10.78-53.38,27.37-74.59c-12.86-20.04-15.9-44.89-8.22-67.18
		c-19.62,13.01-44.29,15.67-66.5,7.15c-16.45,21.18-39.07,36.48-64.71,43.76l-9.03,2.52l-0.38,9.59
		c-1.2,27.3-10.77,53.39-27.37,74.59l3.53,2.88c2.45,1.99,4.75,4.18,6.86,6.55C293.3,225.36,295.4,224.34,297.58,223.48z"/>
	<path class="st1" d="M354.68,243.04c-0.58-2.97-1.43-5.88-2.54-8.7c-0.55-1.4-1.08-2.74-1.61-4.09
		c-9.26-17.09-9.15-37.71,0.29-54.36c18.49-30.51,44.97-55.09,76.53-71.04L445,95.91c0.69-5.61,1.99-11.11,3.88-16.4
		c-19.62,13.01-44.29,15.67-66.5,7.15c-16.45,21.18-39.07,36.48-64.71,43.76l-9.03,2.52l-0.38,9.59
		c-1.01,23.58-8.29,46.33-21.05,65.83c-1.87,3.06-3.9,6.02-6.09,8.86l3.53,2.88c2.46,2,4.75,4.18,6.86,6.55
		c1.94-1.2,3.97-2.26,6.07-3.16c1.36-0.54,2.67-1.05,3.98-1.57c0.21-0.05,0.41-0.13,0.6-0.24c1.09-0.43,2.35-0.6,3.5-0.86
		c8.15-1.41,16.55-0.56,24.34,2.45C340.14,226.86,348.84,233.83,354.68,243.04z"/>
	<g>
		<path class="st2" d="M433.43,130.4c-0.4-3.27-3.3-5.64-6.51-5.33l-6.59,0.72l4.22-5.28c2.01-2.58,1.57-6.37-1-8.47
			c-2.56-2.1-6.28-1.71-8.29,0.87l-12.8,16.48c-1.3,1.67-1.61,3.94-0.81,5.95l0.29,0.73c1.17,2.11,3.46,3.33,5.81,3.08l20.69-2.19
			C431.6,136.53,433.81,133.63,433.43,130.4z"/>
		<path class="st2" d="M374.2,139.22c-3.21,0.36-5.49,3.31-5.09,6.6l3.03,25.32c0.11,0.51,0.3,1.01,0.57,1.46
			c0.4,0.98,1.04,1.85,1.86,2.5c1.22,0.98,2.76,1.44,4.29,1.29l24.8-2.64c2.14-0.15,4.01-1.48,4.88-3.47
			c0.87-1.99,0.59-4.32-0.72-6.08s-3.45-2.67-5.57-2.37l-10.69,1.17l5.39-7.29c1.83-2.58,1.32-6.21-1.17-8.23
			c-2.48-2.02-6.06-1.72-8.1,0.69l-5.79,7.39l-1.26-10.88C380.27,141.37,377.4,138.96,374.2,139.22z"/>
		<path class="st2" d="M333.62,154.92l6.83,56.93l0.57,1.46c0.89,2.58,3.36,4.27,6.02,4.1l56.01-3.87c3.26-0.3,5.62-3.24,5.26-6.56
			c-0.35-3.33-3.28-5.78-6.54-5.48l-42.44,2.8l10.85-13.9c2.01-2.58,1.57-6.37-1-8.47c-2.57-2.1-6.28-1.71-8.29,0.87l-10.36,13.39
			l-5.14-42.53c-0.4-3.32-3.37-5.73-6.62-5.38C335.53,148.62,333.22,151.6,333.62,154.92z"/>
		<path class="st2" d="M284.56,206.42c0.48,1.19,1.32,2.19,2.39,2.87c1.33,0.86,2.93,1.15,4.46,0.8c1.52-0.35,2.83-1.29,3.65-2.64
			c11.64-19.5,18.27-41.73,19.29-64.68l-0.12-5.12l5.03-1.46c25.51-7.17,48.21-21.98,65.19-42.53c18.16,5.87,37.65,5.06,55.07-2.27
			c-3.13,18.96,0.41,38.56,9.99,55.36c-15.78,21.63-24.78,47.68-25.83,74.82l-0.26,5.28l-4.98,1.44
			c-13.6,3.84-26.48,9.87-38.16,17.86c-2.56,1.88-3.15,5.52-1.34,8.21c1.81,2.69,5.37,3.47,8.04,1.76
			c10.65-7.28,22.4-12.78,34.81-16.28l9.01-2.57c2.39-0.69,4.07-2.86,4.18-5.39l0.58-10.06c1.1-26,10.15-50.87,25.9-71.1
			c1.47-2.02,1.52-4.78,0.12-6.9c-11.83-18.62-14.53-41.65-7.29-62.24c0.85-2.41,0.08-5.12-1.9-6.75c-2-1.66-4.79-1.84-6.92-0.45
			c-18,11.77-40.52,14.17-60.84,6.48c-2.4-0.9-5.08-0.14-6.63,1.89c-15.71,20.27-37.35,34.89-61.88,41.8l-9.01,2.57
			c-2.39,0.69-4.07,2.85-4.18,5.39l-0.38,9.59c-1.02,20.85-7.11,41.02-17.74,58.71C283.83,202.52,283.73,204.61,284.56,206.42z"/>
	</g>
</g>
<g>
	<path class="st3" d="M273.49,386.3c43.36-21.05,72.5-60.14,72.5-104.88c0-67.04-65.41-121.39-146.09-121.39
		c-80.68,0-146.09,54.35-146.09,121.39c0,44.74,29.13,83.83,72.5,104.88c3.8,1.85,5.69,5.91,4.5,9.73
		c-2.78,8.93-5.76,17.82-7.83,26.91c-2.87,12.62,6.6,20.8,19.17,20.8c8.66,0,16.09-4,19.25-9.68c3.16,5.69,10.59,9.68,19.25,9.68
		c8.66,0,16.09-3.99,19.25-9.68c3.16,5.69,10.59,9.68,19.25,9.68c8.66,0,16.09-4,19.25-9.68c3.16,5.69,10.59,9.68,19.25,9.68
		c13.49,0,23.15-9.65,19-23.15c-2.52-8.19-5.1-16.37-7.65-24.56C267.8,392.21,269.69,388.15,273.49,386.3z"/>
	<path class="st4" d="M268.99,396.03c2.61,8.37,6.04,16.83,7.9,25.39c2.91,13.38-5.79,22.31-19.24,22.31
		c-3.99,0-7.72-0.85-10.88-2.32c6.76-3.21,11.24-8.91,11.24-15.4c0-2.25-0.54-4.4-1.52-6.38l-9.44-30.28
		c-1.37-4.4,0.8-9.07,5.18-11.19c49.85-24.21,83.35-69.14,83.35-120.58c0-9.42-1.12-18.61-3.26-27.5
		c8.76,15.59,13.67,33,13.67,51.35c0,44.74-29.13,83.83-72.5,104.88C269.7,388.15,267.8,392.21,268.99,396.03z"/>
	<path class="st5" d="M216.62,368.9c-0.77-7.71-10.93-15.67-15.03-18.59c-1.02-0.72-2.38-0.72-3.39,0
		c-4.1,2.92-14.26,10.88-15.02,18.59c-0.54,5.42,5.43,10.27,13.64,11.1c0.97,0.1,5.19,0.1,6.16,0
		C211.2,379.16,217.16,374.31,216.62,368.9z"/>
	<path class="st6" d="M202.98,380c-0.97,0.09-5.2,0.09-6.16,0c-3.82-0.39-7.15-1.64-9.57-3.42c1.27,0.08,5.04,0.08,5.94-0.02
		c8.21-0.83,14.18-5.68,13.65-11.1c-0.52-5.23-5.36-10.57-9.7-14.38c0.89-0.66,1.61-1.17,2.1-1.5c0.39-0.27,0.92-0.27,1.32,0
		c2.99,2.03,15.23,10.82,16.07,19.31C217.16,374.31,211.2,379.16,202.98,380z"/>
	<circle class="st5" cx="142.49" cy="301.39" r="42.1"/>
	<path class="st6" d="M184.59,301.39c0,23.25-18.84,42.1-42.1,42.1c-9.21,0-17.74-2.97-24.67-7.99c3.8,1.12,7.81,1.73,11.97,1.73
		c23.25,0,42.1-18.84,42.1-42.1c0-14.03-6.87-26.47-17.43-34.11C171.89,266.18,184.59,282.3,184.59,301.39z"/>
	<circle class="st5" cx="257.3" cy="301.39" r="42.1"/>
	<path class="st6" d="M299.4,301.39c0,23.25-18.84,42.1-42.1,42.1c-9.21,0-17.74-2.97-24.67-7.99c3.8,1.12,7.81,1.73,11.97,1.73
		c23.25,0,42.1-18.84,42.1-42.1c0-14.03-6.87-26.47-17.43-34.11C286.7,266.18,299.4,282.3,299.4,301.39z"/>
	<path d="M332.79,222.31c-11.09-17.39-27.16-32.57-46.49-43.91c-2.1-1.23-4.8-0.53-6.03,1.57c-1.23,2.1-0.53,4.8,1.57,6.03
		c18.13,10.64,33.18,24.83,43.52,41.05c10.61,16.65,16.22,35.45,16.22,54.38c0,20.68-6.63,41.01-19.18,58.78
		c-12.26,17.37-29.84,31.94-50.83,42.13c-5.77,2.8-8.62,9.11-6.78,15.01c0.84,2.69,1.68,5.38,2.52,8.07
		c1.69,5.4,3.44,10.98,5.13,16.47c1.39,4.53,0.91,8.58-1.4,11.71c-2.69,3.64-7.57,5.73-13.38,5.73c0,0,0,0,0,0
		c-6.75,0-12.94-2.98-15.4-7.42c-0.78-1.4-2.25-2.27-3.85-2.27c-1.6,0-3.07,0.87-3.85,2.27c-2.47,4.44-8.66,7.42-15.4,7.42
		c-6.75,0-12.94-2.98-15.4-7.42c-0.78-1.4-2.25-2.26-3.85-2.26s-3.07,0.87-3.85,2.26c-2.47,4.44-8.66,7.42-15.4,7.42
		c-6.75,0-12.94-2.98-15.4-7.42c-0.78-1.4-2.25-2.27-3.85-2.27c-1.6,0-3.07,0.87-3.85,2.27c-2.46,4.44-8.65,7.42-15.4,7.42
		c-5.62,0-10.36-1.9-13.01-5.22c-2.13-2.67-2.77-6.19-1.86-10.19c1.67-7.33,4.01-14.73,6.27-21.89c0.49-1.56,0.98-3.12,1.47-4.68
		c1.84-5.9-1.01-12.21-6.78-15.01c-20.99-10.19-38.57-24.76-50.83-42.13c-12.55-17.77-19.18-38.1-19.18-58.78
		c0-64.51,63.56-116.98,141.69-116.99c20.11,0,39.54,3.41,57.75,10.14c2.28,0.84,4.81-0.32,5.66-2.61c0.84-2.28-0.32-4.81-2.61-5.66
		c-19.19-7.09-39.65-10.68-60.8-10.68c-40.05,0-77.74,12.99-106.12,36.57c-28.62,23.78-44.38,55.46-44.38,89.22
		c0,22.51,7.19,44.59,20.79,63.86c13.12,18.58,31.86,34.14,54.18,44.98c1.85,0.9,2.76,2.73,2.22,4.46c-0.48,1.55-0.97,3.1-1.46,4.65
		c-2.31,7.33-4.71,14.91-6.46,22.59c-1.5,6.61-0.24,12.88,3.57,17.64c4.33,5.42,11.58,8.54,19.9,8.54c7.53,0,14.53-2.66,19.25-7.07
		c4.72,4.41,11.72,7.07,19.25,7.07c7.53,0,14.53-2.66,19.25-7.07c4.72,4.41,11.72,7.07,19.25,7.07c7.53,0,14.53-2.66,19.25-7.07
		c4.72,4.41,11.72,7.07,19.25,7.07c0,0,0,0,0,0c8.63,0,16.09-3.39,20.46-9.31c3.98-5.39,4.96-12.33,2.74-19.54
		c-1.7-5.51-3.45-11.1-5.14-16.51c-0.84-2.69-1.68-5.37-2.52-8.06c-0.54-1.73,0.37-3.57,2.22-4.46
		c22.33-10.84,41.06-26.39,54.18-44.98c13.6-19.27,20.79-41.35,20.79-63.86C350.39,260.81,344.31,240.37,332.79,222.31z"/>
	<path d="M114.35,269.77c-1.8-1.64-4.58-1.51-6.22,0.28c-7.83,8.58-12.14,19.71-12.14,31.34c0,25.64,20.86,46.51,46.51,46.51
		S189,327.03,189,301.39c0-25.64-20.86-46.51-46.51-46.51c-2.8,0-5.6,0.25-8.33,0.74c-2.39,0.43-3.98,2.72-3.55,5.12
		c0.43,2.39,2.73,3.98,5.12,3.55c2.21-0.4,4.49-0.6,6.76-0.6c20.79,0,37.7,16.91,37.7,37.7c0,20.79-16.91,37.7-37.7,37.7
		s-37.7-16.91-37.7-37.7c0-9.42,3.5-18.44,9.84-25.4C116.28,274.19,116.15,271.41,114.35,269.77z"/>
	<path d="M257.3,347.89c25.64,0,46.51-20.86,46.51-46.51c0-25.64-20.86-46.51-46.51-46.51s-46.51,20.86-46.51,46.51
		C210.8,327.03,231.66,347.89,257.3,347.89z M257.3,263.69c20.79,0,37.7,16.91,37.7,37.7c0,20.79-16.91,37.7-37.7,37.7
		s-37.7-16.91-37.7-37.7S236.51,263.69,257.3,263.69z"/>
	<path d="M196.38,384.38c0.63,0.06,2.07,0.09,3.52,0.09c1.45,0,2.9-0.03,3.52-0.09c10.82-1.09,18.38-7.94,17.58-15.91l0,0
		c-0.9-9.12-10.95-17.54-16.85-21.74c-2.54-1.81-5.96-1.81-8.5,0c-5.91,4.21-15.95,12.62-16.86,21.74
		C178,376.44,185.56,383.28,196.38,384.38z M199.9,354.52c7.15,5.26,11.96,11.02,12.34,14.82l0,0c0.25,2.48-3.68,5.67-9.7,6.28
		c-0.77,0.07-4.52,0.07-5.28,0c-6.03-0.61-9.95-3.8-9.7-6.28C187.94,365.53,192.75,359.78,199.9,354.52z"/>
</g>
<g>
	<path class="st3" d="M470.55,381.6c28.74-29.07,41.01-68.55,28.38-104.33c-18.92-53.61-86.56-78.62-151.08-55.85
		c-64.52,22.77-101.49,84.68-82.57,138.3c12.62,35.78,46.95,58.81,87.57,63.41c3.56,0.4,6.22,3.12,6.35,6.51
		c0.29,7.93,0.42,15.88,1.33,23.73c1.26,10.91,11.15,14.77,21.2,11.22c6.93-2.44,11.74-7.74,12.66-13.18
		c4.13,3.66,11.2,4.76,18.13,2.31c6.93-2.44,11.74-7.73,12.66-13.17c4.13,3.66,11.2,4.75,18.13,2.31
		c6.93-2.44,11.74-7.74,12.66-13.18c4.13,3.66,11.2,4.76,18.13,2.31c10.79-3.81,15.79-14.25,8.66-23.87
		c-4.33-5.84-8.7-11.65-13.05-17.48C467.66,387.93,468.03,384.15,470.55,381.6z"/>
	<path class="st4" d="M469.69,390.66c4.45,5.96,9.58,11.76,13.48,18.08c6.1,9.88,1.67,19.47-9.09,23.27
		c-3.19,1.13-6.41,1.5-9.36,1.21c4.5-4.47,6.48-10.3,4.65-15.49c-0.63-1.8-1.67-3.37-3.02-4.68l-16.1-21.55
		c-2.33-3.13-1.92-7.48,0.98-10.41c33.04-33.43,47.15-78.81,32.63-119.95c-2.66-7.53-6.15-14.57-10.37-21.07
		c11.41,10,20.24,22.53,25.42,37.21c12.63,35.78,0.36,75.26-28.38,104.33C468.03,384.15,467.66,387.93,469.69,390.66z"/>
	<path class="st5" d="M420.16,383.73c-2.79-5.95-13.16-9.45-17.27-10.63c-1.02-0.29-2.11,0.09-2.71,0.96
		c-2.45,3.49-8.33,12.72-6.77,19.11c1.1,4.48,7.24,6.68,14.04,5.02c0.8-0.19,4.18-1.39,4.93-1.74
		C418.71,393.47,422.12,387.91,420.16,383.73z"/>
	<path class="st6" d="M412.38,396.46c-0.75,0.35-4.13,1.54-4.93,1.74c-3.17,0.77-6.18,0.7-8.62-0.04c1.04-0.29,4.05-1.36,4.75-1.69
		c6.34-2.98,9.74-8.54,7.78-12.73c-1.89-4.03-7.27-6.94-11.81-8.76c0.52-0.78,0.96-1.39,1.26-1.79c0.24-0.33,0.66-0.47,1.05-0.37
		c2.96,0.78,15.23,4.36,18.3,10.91C422.12,387.91,418.71,393.47,412.38,396.46z"/>
	<circle class="st5" cx="341.83" cy="350.66" r="35.7"/>
	<path class="st6" d="M375.49,338.78c6.56,18.59-3.19,38.99-21.78,45.55c-7.36,2.6-15.02,2.63-21.98,0.57
		c3.35-0.17,6.73-0.82,10.06-2c18.59-6.56,28.35-26.95,21.79-45.54c-3.96-11.22-12.96-19.23-23.56-22.36
		C355.4,314.21,370.11,323.52,375.49,338.78z"/>
	<circle class="st5" cx="433.63" cy="318.27" r="35.7"/>
	<path class="st6" d="M467.3,306.39c6.56,18.59-3.19,38.99-21.78,45.55c-7.36,2.6-15.02,2.63-21.98,0.57
		c3.35-0.17,6.73-0.82,10.06-2c18.59-6.56,28.35-26.95,21.79-45.54c-3.96-11.22-12.96-19.23-23.56-22.36
		C447.21,281.82,461.92,291.12,467.3,306.39z"/>
	<path d="M471.69,233.73c-13.77-10.78-30.91-18.38-49.57-22c-2.02-0.39-3.98,0.93-4.38,2.96c-0.39,2.03,0.93,3.98,2.96,4.38
		c17.5,3.39,33.54,10.5,46.39,20.55c13.18,10.32,22.98,23.77,28.32,38.91c5.84,16.54,6.27,34.66,1.25,52.42
		c-4.91,17.35-14.85,33.96-28.76,48.04c-3.82,3.87-4.32,9.72-1.19,13.91c1.43,1.92,2.86,3.83,4.3,5.74
		c2.87,3.84,5.84,7.81,8.74,11.72c2.39,3.23,3.15,6.61,2.18,9.76c-1.12,3.67-4.43,6.72-9.08,8.36c0,0,0,0,0,0
		c-5.4,1.9-11.19,1.27-14.41-1.59c-1.02-0.9-2.44-1.18-3.72-0.73c-1.28,0.45-2.21,1.56-2.44,2.9c-0.72,4.24-4.83,8.38-10.22,10.28
		c-5.4,1.9-11.19,1.27-14.41-1.59c-1.02-0.9-2.44-1.18-3.72-0.72s-2.21,1.56-2.44,2.9c-0.72,4.24-4.83,8.37-10.22,10.28
		c-5.4,1.9-11.19,1.27-14.41-1.59c-1.02-0.9-2.44-1.18-3.72-0.73c-1.28,0.45-2.21,1.56-2.44,2.9c-0.72,4.24-4.83,8.37-10.22,10.28
		c-4.5,1.59-8.83,1.4-11.88-0.5c-2.45-1.53-3.96-4.17-4.37-7.63c-0.73-6.33-0.95-12.91-1.17-19.28c-0.05-1.39-0.09-2.77-0.14-4.16
		c-0.19-5.23-4.26-9.48-9.66-10.09c-19.66-2.23-37.83-8.92-52.54-19.35c-15.05-10.67-26.09-25.06-31.93-41.6
		c-18.2-51.58,17.82-111.49,80.3-133.53c16.08-5.67,32.58-8.43,49.04-8.19c2.06,0.03,3.76-1.62,3.79-3.68
		c0.03-2.06-1.62-3.76-3.68-3.79c-17.35-0.25-34.72,2.65-51.64,8.61c-32.03,11.3-58.5,32.32-74.54,59.19
		c-16.18,27.09-19.84,56.88-10.31,83.87c6.35,18,18.33,33.63,34.65,45.2c15.74,11.16,35.11,18.31,56.02,20.68
		c1.73,0.2,2.98,1.41,3.03,2.94c0.05,1.38,0.1,2.75,0.14,4.13c0.22,6.52,0.44,13.25,1.21,19.89c0.66,5.71,3.44,10.36,7.83,13.1
		c4.99,3.12,11.67,3.56,18.32,1.21c6.02-2.13,10.87-6.23,13.4-11.09c5.02,2.2,11.37,2.35,17.39,0.22
		c6.02-2.12,10.87-6.23,13.4-11.09c5.02,2.2,11.37,2.35,17.39,0.22c6.02-2.12,10.87-6.23,13.4-11.09c5.02,2.2,11.37,2.35,17.39,0.22
		c0,0,0,0,0,0c6.91-2.44,11.91-7.25,13.74-13.22c1.66-5.44,0.48-11.26-3.32-16.4c-2.91-3.93-5.89-7.91-8.77-11.75
		c-1.43-1.91-2.86-3.82-4.29-5.74c-0.92-1.23-0.71-2.96,0.52-4.19c14.8-14.97,25.39-32.69,30.64-51.26
		c5.44-19.25,4.96-38.94-1.39-56.94C496.63,259.55,486,244.92,471.69,233.73z"/>
	<path d="M310.4,333.32c-1.9-0.8-4.09,0.08-4.9,1.98c-3.84,9.07-4.15,19.19-0.87,28.49c7.24,20.51,29.81,31.3,50.31,24.07
		c20.51-7.24,31.3-29.81,24.07-50.31c-7.24-20.51-29.81-31.3-50.31-24.07c-2.24,0.79-4.41,1.78-6.45,2.95
		c-1.79,1.02-2.42,3.3-1.39,5.09c1.02,1.79,3.31,2.42,5.09,1.39c1.66-0.94,3.42-1.75,5.24-2.39c16.62-5.87,34.92,2.89,40.78,19.51
		c5.87,16.62-2.89,34.92-19.51,40.78c-16.62,5.87-34.92-2.89-40.78-19.51c-2.66-7.54-2.41-15.74,0.7-23.09
		C313.19,336.31,312.3,334.12,310.4,333.32z"/>
	<path d="M446.76,355.46c20.51-7.24,31.3-29.81,24.07-50.31c-7.24-20.51-29.81-31.3-50.31-24.07c-20.51,7.24-31.3,29.81-24.07,50.31
		C403.68,351.9,426.25,362.69,446.76,355.46z M423,288.12c16.62-5.87,34.92,2.89,40.78,19.51c5.87,16.62-2.89,34.92-19.51,40.78
		c-16.62,5.87-34.92-2.89-40.78-19.51S406.38,293.99,423,288.12z"/>
	<path d="M408.33,401.82c0.52-0.13,1.69-0.51,2.84-0.92c1.16-0.41,2.31-0.84,2.79-1.07c8.34-3.93,12.46-11.53,9.57-17.69l0,0
		c-3.3-7.04-13.7-10.94-19.61-12.63c-2.54-0.73-5.28,0.23-6.8,2.4c-3.54,5.03-9.2,14.59-7.35,22.15
		C391.4,400.66,399.37,404,408.33,401.82z M402.73,376.95c7.21,2.19,12.67,5.44,14.05,8.37l0,0c0.9,1.91-1.34,5.57-5.98,7.76
		c-0.59,0.27-3.6,1.33-4.22,1.49c-4.99,1.21-9.03-0.23-9.53-2.28C396.27,389.14,398.49,383.18,402.73,376.95z"/>
</g>
</svg>
