<?xml version="1.0" encoding="utf-8"?>
<!-- Generator: Adobe Illustrator 24.0.1, SVG Export Plug-In . SVG Version: 6.00 Build 0)  -->
<svg version="1.1" id="Laag_1" xmlns="http://www.w3.org/2000/svg" xmlns:xlink="http://www.w3.org/1999/xlink" x="0px" y="0px"
	 viewBox="0 0 1366 64" style="enable-background:new 0 0 1366 64;" xml:space="preserve">
<style type="text/css">
	.st0{fill:#FFFFFF;}
</style>
<g>
	<path class="st0" d="M1366,64.69V15.34c-9.67-0.47-19.48-0.07-28.87,1.73c-11.24,2.15-21.99,6.33-33.55,7.05
		c-11.99,0.75-24.38-1.35-36.13-3.44c-12.34-2.19-24.68-4.5-36.98-6.91c-24.49-4.8-50.37-10.02-75.11-4.18
		c-11.23,2.65-21.24,8.18-32.81,9.76c-11.8,1.61-23.87,1.32-35.74,0.21c-11.88-1.11-23.19-3.25-34.63-6.43
		c-12.25-3.4-24.87-6.76-37.69-4.46c-22.07,3.97-41.89,15.78-65.17,11.38c-11.94-2.25-23.11-7-34.85-9.92
		c-12.77-3.17-26.06-3.52-39.06-1.76c-12.53,1.69-24.86,4.88-37.2,7.41c-12.26,2.51-24.58,4.89-37.03,6.48
		c-38.09,4.88-76.61-0.06-114.78-5.25l0.01-0.14c-10.85-0.77-21.97-0.51-32.55,1.51c-11.24,2.15-21.99,6.33-33.55,7.05
		c-11.99,0.75-24.38-1.35-36.13-3.44c-12.34-2.19-24.68-4.5-36.98-6.91c-24.49-4.8-50.37-10.02-75.11-4.18
		c-11.23,2.65-21.24,8.18-32.81,9.76c-11.8,1.61-23.87,1.32-35.74,0.21c-11.88-1.11-23.19-3.25-34.63-6.43
		c-12.25-3.4-24.87-6.76-37.69-4.46c-22.07,3.97-41.89,15.78-65.17,11.38c-11.94-2.25-23.11-7-34.85-9.92
		c-12.77-3.17-26.06-3.52-39.06-1.76c-12.53,1.69-24.86,4.88-37.2,7.41c-12.26,2.51-24.58,4.89-37.03,6.48
		c-38.7,4.96-78.85-3.22-117.62-8.5L0,40.69v24H1366z"/>
</g>
</svg>
